<svg xmlns="http://www.w3.org/2000/svg" width="1274" height="595" fill-rule="evenodd" clip-rule="evenodd" image-rendering="optimizeQuality" shape-rendering="geometricPrecision" text-rendering="geometricPrecision" viewBox="0 0 1274 595.5"><defs><style>.fil0,.fil1{fill:#006848;fill-rule:nonzero}.fil1{fill:#fff}</style></defs><g id="Слой_x0020_1"><g id="_2659425720128"><path d="M737.96 70.58C690.55 27.13 627.56.36 558.16.36H-.24c1.05 20.27 3.99 40 8.46 59.14 1.08 4.27 2.03 8.58 3.28 12.78.48 1.72.95 3.43 1.45 5.14C56.15 214.5 184.24 313.93 335.6 313.93h484.6c2.74-15.31 4.42-30.99 4.42-47.1 0-77.77-33.52-147.53-86.66-196.25z" class="fil0"/><path d="M1002.58 281.12v-7.08l6.57.08 6.53.23 6.49.39 6.45.55 6.41.7 6.35.84 6.31.99 6.26 1.14 6.21 1.28 6.16 1.43 6.1 1.56 6.04 1.71 5.98 1.84 5.93 1.97 5.86 2.11 5.8 2.24 5.73 2.37 5.67 2.49 5.6 2.62 5.53 2.74 5.45 2.87 5.38 2.98 5.31 3.1 5.23 3.22 5.15 3.33 5.06 3.45 4.99 3.55 4.9 3.66 4.82 3.77 4.73 3.88 4.64 3.97 4.55 4.08-4.79 5.22-4.43-3.97-4.52-3.87-4.61-3.78-4.69-3.67-4.77-3.57-4.86-3.46-4.94-3.36-5.01-3.24-5.1-3.13-5.16-3.02-5.24-2.91-5.31-2.79-5.39-2.67-5.45-2.55-5.51-2.43-5.59-2.3-5.64-2.18-5.71-2.05-5.77-1.93-5.82-1.79-5.88-1.66-5.94-1.52-5.99-1.39-6.05-1.25-6.09-1.1-6.14-.97-6.19-.82-6.24-.68-6.28-.53-6.32-.38-6.36-.23-6.4-.08zm-558.41-7.08h558.41v7.08H444.17l-3.54-3.36 3.54-3.72zm-3.54 3.72l-.19-3.72h3.73l-3.54 3.72zm15.43 58.07l-6.86 1.76-.02-.08-.42-1.81-.41-1.82-.4-1.82-.39-1.82-.38-1.83-.37-1.83-.36-1.84-.36-1.84-.34-1.84-.33-1.84-.33-1.85-.31-1.86-.31-1.85-.29-1.86-.29-1.86-.27-1.87-.27-1.87-.25-1.87-.25-1.88-.23-1.88-.23-1.88-.21-1.89-.2-1.89-.2-1.89-.18-1.89-.17-1.9-.16-1.9-.15-1.91-.14-1.91-.13-1.91-.11-1.92-.11-1.92 7.07-.37.11 1.88.11 1.88.13 1.87.13 1.87.15 1.86.16 1.86.16 1.86.18 1.86.19 1.85.2 1.85.21 1.84.22 1.85.23 1.84.23 1.83.26 1.84.26 1.83.26 1.82.28 1.83.29 1.82.3 1.82.31 1.81.32 1.81.32 1.81.34 1.81.35 1.8.35 1.8.37 1.79.37 1.79.38 1.79.4 1.79.4 1.78.41 1.78-.02-.08zm-6.86 1.76l-.01-.05-.01-.03.02.08zm10.13 10.96l-6.83 1.87.02.08-.12-.41-.12-.41-.12-.41-.11-.41-.12-.4-.11-.42-.11-.41-.11-.4-.1-.41-.11-.41-.11-.4-.1-.41-.1-.41-.11-.4-.1-.41-.1-.4-.1-.41-.1-.4-.1-.41-.1-.4-.09-.41-.1-.39-.1-.4-.1-.4-.09-.4-.1-.4-.1-.4-.1-.4-.1-.39-.09-.4-.1-.39-.1-.39 6.86-1.76.1.41.1.41.11.4.1.41.1.4.1.41.1.4.09.4.1.4.1.41.1.4.1.4.09.4.1.4.1.39.1.4.1.4.09.39.1.4.1.39.1.39.1.39.1.39.11.39.1.39.1.39.11.37.11.39.11.38.1.39.11.38.12.37.02.08zm-.02-.08l.01.05.01.03-.02-.08zm1.43 5.1l-6.75 2.13-.02-.07-.05-.16-.05-.17-.04-.16-.05-.16-.05-.18-.04-.14-.05-.17-.05-.17-.05-.17-.04-.16-.05-.15-.04-.16-.05-.17-.05-.17-.04-.15-.05-.17-.05-.17-.04-.16-.05-.16-.04-.16-.05-.16-.04-.16-.05-.17-.04-.15-.05-.18-.05-.16-.04-.15-.04-.17-.05-.16-.04-.16-.05-.17-.04-.16 6.83-1.87.04.16.05.16.04.16.04.16.04.15.05.17.05.17.04.14.04.16.05.17.04.16.05.16.04.16.05.16.04.16.04.15.05.16.05.17.04.15.04.15.05.16.05.17.04.16.05.15.04.15.05.16.05.17.04.15.04.16.05.16.05.15.04.16-.02-.06zm-6.75 2.13l-.02-.07v.02l.02.05zm326.02 231.9v7.08l-14.26-.29-14.12-.87-13.96-1.44-13.78-1.99-13.61-2.53-13.4-3.06-13.21-3.59-12.98-4.09-12.76-4.59-12.51-5.08-12.27-5.55-12-6.02-11.72-6.46-11.44-6.9-11.14-7.34-10.84-7.75-10.51-8.16-10.18-8.55-9.84-8.93-9.48-9.31-9.12-9.66-8.74-10.02-8.35-10.35-7.95-10.67-7.54-11-7.12-11.29-6.68-11.59-6.24-11.86-5.78-12.14-5.32-12.39-4.83-12.64-4.34-12.87 6.75-2.13 4.26 12.6 4.73 12.38 5.2 12.13 5.66 11.89 6.11 11.62 6.54 11.34 6.98 11.06 7.38 10.77 7.79 10.45 8.18 10.14 8.56 9.81 8.93 9.47 9.28 9.11 9.64 8.75 9.97 8.37 10.3 7.99 10.6 7.59 10.91 7.19 11.21 6.76 11.48 6.33 11.75 5.89 12.01 5.43 12.25 4.97 12.49 4.5 12.71 4.01 12.93 3.51 13.13 3 13.32 2.48 13.5 1.95 13.67 1.4 13.83.85 13.97.29zm484.6 7.08h-484.6v-7.08h484.6l3.49 4.16-3.49 2.92zm3.49-2.92l-.52 2.92h-2.97l3.49-2.92zm-2.61-47.72h7.09l-.01 1.53-.01 1.53-.03 1.53-.03 1.52-.05 1.52-.05 1.52-.06 1.52-.07 1.51-.08 1.51-.09 1.51-.1 1.5-.11 1.5-.12 1.5-.12 1.5-.13 1.5-.14 1.49-.15 1.49-.16 1.49-.17 1.48-.17 1.48-.18 1.48-.19 1.48-.19 1.47-.2 1.48-.21 1.47-.22 1.46-.22 1.47-.24 1.46-.23 1.46-.24 1.46-.26 1.45-.25 1.45-6.97-1.24.25-1.42.24-1.43.24-1.42.23-1.43.23-1.43.22-1.43.21-1.43.2-1.44.2-1.43.19-1.44.18-1.44.18-1.45.17-1.44.16-1.45.15-1.45.15-1.45.13-1.45.13-1.46.12-1.45.12-1.46.1-1.46.1-1.47.08-1.46.08-1.47.07-1.47.06-1.47.06-1.48.04-1.47.03-1.48.02-1.48.02-1.48v-1.49zm-85.51-193.64l4.79-5.22 4.99 4.69 4.87 4.81 4.74 4.93 4.63 5.05 4.49 5.17 4.37 5.27 4.24 5.39 4.1 5.5 3.96 5.6 3.83 5.7 3.68 5.81 3.54 5.91 3.39 6 3.24 6.09 3.09 6.19 2.93 6.27 2.77 6.36 2.62 6.45 2.45 6.52 2.29 6.61 2.12 6.68 1.94 6.76 1.78 6.83 1.6 6.89 1.42 6.97 1.24 7.03 1.05 7.09.87 7.15.68 7.2.49 7.27.3 7.31.1 7.36h-7.09l-.09-7.17-.29-7.12-.48-7.07-.66-7.02-.85-6.96-1.02-6.91-1.21-6.84-1.38-6.78-1.56-6.71-1.73-6.65-1.89-6.58-2.06-6.5-2.23-6.43-2.39-6.36-2.54-6.27-2.7-6.19-2.86-6.11-3.01-6.03-3.15-5.93-3.3-5.84-3.45-5.75-3.58-5.66-3.73-5.55-3.86-5.46-4-5.35-4.12-5.25-4.25-5.14-4.39-5.03-4.5-4.92-4.63-4.8-4.74-4.69-4.86-4.57z" class="fil0"/><path d="M591.79 154.58H487.47v54.26h33.08v-30.56h13.95l18.75 30.56h37.59l-22.07-33.12c10.61-3.79 19.03-11.5 23.02-21.14zM581.1 115.06c-6.48-5.94-15.08-9.59-24.57-9.59h-71.16c.14 2.76.55 5.46 1.15 8.08.15.58.28 1.17.45 1.74.07.24.13.47.2.7 5.9 18.74 23.41 32.32 44.09 32.32h61.08c.38-2.09.61-4.23.61-6.43 0-10.63-4.58-20.16-11.85-26.82zM376.05 119.05l-13.7 47.5h-2.36l-13.7-47.5c-2.32-8.05-9.68-13.58-18.05-13.58h-32.85v103.37h32.89v-61.09h2.35l18.79 61.09h23.5l18.79-61.09h2.35v61.09h32.89V105.47h-32.84c-8.38 0-15.74 5.53-18.06 13.58zM441.05 208.84h32.89V105.47h-32.89z" class="fil1"/><path d="M705.88 450.31l-27.33-60.17-27.48 60.17h54.81zm-30.9-68.64h7.43l48.43 104.73h-8.47l-13.22-29.11H647.8l-13.22 29.11h-8.02l48.42-104.73zM738.49 448.82v-.3c0-21.24 16.93-39.66 38.62-39.66 14.27 0 23.18 6.53 30.31 13.96l-5.2 5.35c-6.54-6.68-13.96-12.48-25.26-12.48-17.23 0-30.6 14.41-30.6 32.53v.3c0 18.28 13.82 32.83 31.2 32.83 10.7 0 19.02-5.49 25.4-12.63l5.05 4.46c-7.72 8.77-16.93 15.01-30.9 15.01-21.83 0-38.62-18.12-38.62-39.37zM816.91 448.82v-.3c0-21.24 16.93-39.66 38.62-39.66 14.27 0 23.18 6.53 30.31 13.96l-5.2 5.35c-6.54-6.68-13.96-12.48-25.26-12.48-17.23 0-30.6 14.41-30.6 32.53v.3c0 18.28 13.82 32.83 31.2 32.83 10.7 0 19.02-5.49 25.4-12.63l5.05 4.46c-7.72 8.77-16.93 15.01-30.9 15.01-21.83 0-38.62-18.12-38.62-39.37zM958.5 444.95c-1.04-15.29-9.81-29.41-27.19-29.41-15 0-26.59 12.63-27.93 29.41h55.12zm-62.84 3.72v-.3c0-21.98 15.45-39.51 35.95-39.51 21.24 0 34.76 17.23 34.76 39.66 0 1.34 0 1.79-.15 2.97h-62.84c1.34 18.87 14.86 29.86 29.71 29.86 11.74 0 19.76-5.2 26-11.88l5.05 4.45c-7.72 8.32-16.78 14.27-31.34 14.27-19.91 0-37.14-15.9-37.14-39.52zM1051.51 448.82v-.3c0-19.9-13.82-32.68-29.72-32.68-15.74 0-30.9 13.22-30.9 32.53v.3c0 19.46 15.16 32.54 30.9 32.54 16.49 0 29.72-12.04 29.72-32.39zm-67.45-38.18h7.28v16.93c6.54-9.95 16.19-18.71 31.2-18.71 18.27 0 36.84 14.71 36.84 39.36v.3c0 24.66-18.57 39.67-36.84 39.67-15.16 0-24.96-8.62-31.2-18.12v40.1h-7.28v-99.53zM1079.19 466.94v-49.62h-10.99v-6.68h10.99v-24.21h7.28v24.21h26.59v6.68h-26.59v48.88c0 10.85 6.39 14.71 15.15 14.71 3.72 0 6.84-.74 11.14-2.68v6.84c-3.86 1.78-7.57 2.67-12.32 2.67-11.74 0-21.25-6.39-21.25-20.8z" class="fil0"/></g></g></svg>